<mxfile host="diagram-viewer.giteeusercontent.com" modified="2023-03-24T09:47:08.352Z" agent="5.0 (Windows)" version="${version}" etag="BKR_nuuC_ps5oxcWOw7T">
  <diagram id="0" name="第 1 页">
    <mxGraphModel dx="1646" dy="776" grid="1" gridSize="10" guides="1" tooltips="1" connect="1" arrows="1" fold="1" page="1" pageScale="1" pageWidth="827" pageHeight="1169" math="0" shadow="0">
      <root>
        <mxCell id="0" />
        <mxCell id="1" parent="0" />
        <mxCell id="CeKelI6TG5AkDN27eIJv-2" value="消费者" style="rounded=1;whiteSpace=wrap;html=1;labelBackgroundColor=none;fillColor=#dae8fc;strokeColor=#6c8ebf;" vertex="1" parent="1">
          <mxGeometry x="650" y="200" width="120" height="120" as="geometry" />
        </mxCell>
        <mxCell id="CeKelI6TG5AkDN27eIJv-3" value="提供者" style="rounded=1;whiteSpace=wrap;html=1;labelBackgroundColor=none;fillColor=#dae8fc;strokeColor=#6c8ebf;" vertex="1" parent="1">
          <mxGeometry x="60" y="200" width="120" height="120" as="geometry" />
        </mxCell>
        <mxCell id="CeKelI6TG5AkDN27eIJv-4" value="注册中心" style="rounded=1;whiteSpace=wrap;html=1;direction=south;labelBackgroundColor=none;fillColor=#dae8fc;strokeColor=#6c8ebf;" vertex="1" parent="1">
          <mxGeometry x="355" y="345" width="90" height="55" as="geometry" />
        </mxCell>
        <mxCell id="CeKelI6TG5AkDN27eIJv-5" value="" style="endArrow=classic;html=1;rounded=0;entryX=1;entryY=0.5;entryDx=0;entryDy=0;labelBackgroundColor=none;strokeColor=#A8201A;fontColor=default;" edge="1" parent="1" target="CeKelI6TG5AkDN27eIJv-3">
          <mxGeometry width="50" height="50" relative="1" as="geometry">
            <mxPoint x="650" y="260" as="sourcePoint" />
            <mxPoint x="440" y="400" as="targetPoint" />
          </mxGeometry>
        </mxCell>
        <mxCell id="CeKelI6TG5AkDN27eIJv-6" value="" style="rounded=0;whiteSpace=wrap;html=1;labelBackgroundColor=none;" vertex="1" parent="1">
          <mxGeometry x="340" y="160" width="120" height="90" as="geometry" />
        </mxCell>
        <mxCell id="CeKelI6TG5AkDN27eIJv-7" value="&lt;font color=&quot;#dc1818&quot;&gt;服务调用（连接重试）&lt;/font&gt;" style="text;html=1;align=center;verticalAlign=middle;resizable=0;points=[];autosize=1;strokeColor=none;fillColor=none;labelBackgroundColor=none;fontColor=#143642;" vertex="1" parent="1">
          <mxGeometry x="330" y="265" width="140" height="30" as="geometry" />
        </mxCell>
        <mxCell id="CeKelI6TG5AkDN27eIJv-8" value="序列化" style="rounded=0;whiteSpace=wrap;html=1;labelBackgroundColor=none;fillColor=#d5e8d4;strokeColor=#82b366;" vertex="1" parent="1">
          <mxGeometry x="370" y="160" width="60" height="20" as="geometry" />
        </mxCell>
        <mxCell id="CeKelI6TG5AkDN27eIJv-9" value="代理" style="rounded=0;whiteSpace=wrap;html=1;labelBackgroundColor=none;fillColor=#d5e8d4;strokeColor=#82b366;" vertex="1" parent="1">
          <mxGeometry x="675" y="215" width="70" height="25" as="geometry" />
        </mxCell>
        <mxCell id="CeKelI6TG5AkDN27eIJv-10" value="负载均衡" style="rounded=0;whiteSpace=wrap;html=1;labelBackgroundColor=none;fillColor=#d5e8d4;strokeColor=#82b366;" vertex="1" parent="1">
          <mxGeometry x="370" y="195" width="60" height="20" as="geometry" />
        </mxCell>
        <mxCell id="CeKelI6TG5AkDN27eIJv-11" value="调用方式" style="rounded=0;whiteSpace=wrap;html=1;labelBackgroundColor=none;fillColor=#d5e8d4;strokeColor=#82b366;" vertex="1" parent="1">
          <mxGeometry x="370" y="230" width="60" height="20" as="geometry" />
        </mxCell>
        <mxCell id="CeKelI6TG5AkDN27eIJv-12" value="同步、异步、单向" style="rounded=0;whiteSpace=wrap;html=1;labelBackgroundColor=none;" vertex="1" parent="1">
          <mxGeometry x="520" y="30" width="120" height="60" as="geometry" />
        </mxCell>
        <mxCell id="CeKelI6TG5AkDN27eIJv-13" value="" style="endArrow=classic;html=1;rounded=0;entryX=0.5;entryY=1;entryDx=0;entryDy=0;labelBackgroundColor=none;strokeColor=#A8201A;fontColor=default;" edge="1" parent="1" target="CeKelI6TG5AkDN27eIJv-12">
          <mxGeometry width="50" height="50" relative="1" as="geometry">
            <mxPoint x="430" y="237.5" as="sourcePoint" />
            <mxPoint x="480" y="187.5" as="targetPoint" />
          </mxGeometry>
        </mxCell>
        <mxCell id="CeKelI6TG5AkDN27eIJv-14" value="Jdk、Json、Protobuf" style="rounded=0;whiteSpace=wrap;html=1;labelBackgroundColor=none;" vertex="1" parent="1">
          <mxGeometry x="160" y="30" width="120" height="60" as="geometry" />
        </mxCell>
        <mxCell id="CeKelI6TG5AkDN27eIJv-15" value="" style="endArrow=classic;html=1;rounded=0;labelBackgroundColor=none;strokeColor=#A8201A;fontColor=default;" edge="1" parent="1" target="CeKelI6TG5AkDN27eIJv-14">
          <mxGeometry width="50" height="50" relative="1" as="geometry">
            <mxPoint x="370" y="170" as="sourcePoint" />
            <mxPoint x="290" y="120" as="targetPoint" />
          </mxGeometry>
        </mxCell>
        <mxCell id="CeKelI6TG5AkDN27eIJv-16" value="Jdk" style="rounded=0;whiteSpace=wrap;html=1;labelBackgroundColor=none;" vertex="1" parent="1">
          <mxGeometry x="650" y="110" width="120" height="60" as="geometry" />
        </mxCell>
        <mxCell id="CeKelI6TG5AkDN27eIJv-17" value="" style="endArrow=classic;html=1;rounded=0;labelBackgroundColor=none;strokeColor=#A8201A;fontColor=default;" edge="1" parent="1" source="CeKelI6TG5AkDN27eIJv-9" target="CeKelI6TG5AkDN27eIJv-16">
          <mxGeometry width="50" height="50" relative="1" as="geometry">
            <mxPoint x="610" y="230" as="sourcePoint" />
            <mxPoint x="660" y="180" as="targetPoint" />
          </mxGeometry>
        </mxCell>
        <mxCell id="CeKelI6TG5AkDN27eIJv-18" value="" style="endArrow=classic;html=1;rounded=0;labelBackgroundColor=none;strokeColor=#A8201A;fontColor=default;" edge="1" parent="1" source="CeKelI6TG5AkDN27eIJv-3" target="CeKelI6TG5AkDN27eIJv-4">
          <mxGeometry width="50" height="50" relative="1" as="geometry">
            <mxPoint x="170" y="330" as="sourcePoint" />
            <mxPoint x="220" y="280" as="targetPoint" />
          </mxGeometry>
        </mxCell>
        <mxCell id="CeKelI6TG5AkDN27eIJv-19" value="" style="endArrow=classic;html=1;rounded=0;labelBackgroundColor=none;strokeColor=#A8201A;fontColor=default;" edge="1" parent="1" source="CeKelI6TG5AkDN27eIJv-2" target="CeKelI6TG5AkDN27eIJv-4">
          <mxGeometry width="50" height="50" relative="1" as="geometry">
            <mxPoint x="570" y="370" as="sourcePoint" />
            <mxPoint x="620" y="320" as="targetPoint" />
          </mxGeometry>
        </mxCell>
        <mxCell id="CeKelI6TG5AkDN27eIJv-20" value="注册" style="text;html=1;align=center;verticalAlign=middle;resizable=0;points=[];autosize=1;strokeColor=none;fillColor=none;labelBackgroundColor=none;fontColor=#143642;" vertex="1" parent="1">
          <mxGeometry x="245" y="295" width="50" height="30" as="geometry" />
        </mxCell>
        <mxCell id="CeKelI6TG5AkDN27eIJv-21" value="发现" style="text;html=1;align=center;verticalAlign=middle;resizable=0;points=[];autosize=1;strokeColor=none;fillColor=none;labelBackgroundColor=none;fontColor=#143642;" vertex="1" parent="1">
          <mxGeometry x="510" y="295" width="50" height="30" as="geometry" />
        </mxCell>
        <mxCell id="CeKelI6TG5AkDN27eIJv-22" value="Zookeeper" style="rounded=0;whiteSpace=wrap;html=1;labelBackgroundColor=none;" vertex="1" parent="1">
          <mxGeometry x="340" y="460" width="120" height="60" as="geometry" />
        </mxCell>
        <mxCell id="CeKelI6TG5AkDN27eIJv-23" value="" style="endArrow=classic;html=1;rounded=0;fontColor=default;entryX=0.5;entryY=0;entryDx=0;entryDy=0;exitX=1;exitY=0.5;exitDx=0;exitDy=0;labelBackgroundColor=none;strokeColor=#A8201A;" edge="1" parent="1" source="CeKelI6TG5AkDN27eIJv-4" target="CeKelI6TG5AkDN27eIJv-22">
          <mxGeometry width="50" height="50" relative="1" as="geometry">
            <mxPoint x="430" y="440" as="sourcePoint" />
            <mxPoint x="480" y="390" as="targetPoint" />
          </mxGeometry>
        </mxCell>
        <mxCell id="CeKelI6TG5AkDN27eIJv-24" value="Curator" style="text;html=1;align=center;verticalAlign=middle;resizable=0;points=[];autosize=1;strokeColor=none;fillColor=none;fontColor=#143642;labelBackgroundColor=none;" vertex="1" parent="1">
          <mxGeometry x="220" y="315" width="60" height="30" as="geometry" />
        </mxCell>
        <mxCell id="CeKelI6TG5AkDN27eIJv-25" value="Curator" style="text;html=1;align=center;verticalAlign=middle;resizable=0;points=[];autosize=1;strokeColor=none;fillColor=none;fontColor=#143642;labelBackgroundColor=none;" vertex="1" parent="1">
          <mxGeometry x="540" y="320" width="60" height="30" as="geometry" />
        </mxCell>
        <mxCell id="CeKelI6TG5AkDN27eIJv-26" value="连接池" style="rounded=0;whiteSpace=wrap;html=1;labelBackgroundColor=none;fillColor=#d5e8d4;strokeColor=#82b366;" vertex="1" parent="1">
          <mxGeometry x="675" y="282.5" width="70" height="25" as="geometry" />
        </mxCell>
        <mxCell id="CeKelI6TG5AkDN27eIJv-27" value="心跳检测、&lt;br&gt;空闲 连接" style="rounded=0;whiteSpace=wrap;html=1;" vertex="1" parent="1">
          <mxGeometry x="650" y="365" width="120" height="75" as="geometry" />
        </mxCell>
        <mxCell id="CeKelI6TG5AkDN27eIJv-28" value="" style="endArrow=classic;html=1;rounded=0;exitX=0.5;exitY=1;exitDx=0;exitDy=0;fillColor=#f8cecc;strokeColor=#b85450;" edge="1" parent="1" source="CeKelI6TG5AkDN27eIJv-26" target="CeKelI6TG5AkDN27eIJv-27">
          <mxGeometry width="50" height="50" relative="1" as="geometry">
            <mxPoint x="710" y="330" as="sourcePoint" />
            <mxPoint x="760" y="280" as="targetPoint" />
          </mxGeometry>
        </mxCell>
      </root>
    </mxGraphModel>
  </diagram>
</mxfile>
